<svg xmlns="http://www.w3.org/2000/svg" width="30" height="30" fill="none" viewBox="0 0 30 30">
    <path fill="#1B1B1B"
          d="M0 15c0 8.284 6.716 15 15 15 8.284 0 15-6.716 15-15 0-8.284-6.716-15-15-15C6.716 0 0 6.716 0 15Z"/>
    <path fill="#FEFEFE"
          d="M15 8.625h3.188c.75 0 1.125.188 1.406.281.375.188.656.281.937.563.282.281.469.562.563.937.093.281.187.656.281 1.406v6.376c0 .75-.188 1.125-.281 1.406-.188.375-.282.656-.563.937-.281.282-.562.469-.937.563-.282.093-.657.187-1.407.281h-6.375c-.75 0-1.124-.188-1.406-.281-.375-.188-.656-.282-.937-.563-.281-.281-.469-.562-.563-.937-.094-.282-.187-.657-.281-1.407v-6.375c0-.75.188-1.124.281-1.406.188-.375.281-.656.563-.937.281-.281.562-.469.937-.563.281-.094.656-.187 1.406-.281H15Zm0-1.406h-3.188c-.843 0-1.406.187-1.874.375a4.094 4.094 0 0 0-1.407.937c-.469.469-.656.844-.937 1.406-.188.47-.282 1.032-.375 1.876v6.375c0 .843.187 1.406.375 1.875.187.468.468.937.937 1.406.469.468.844.656 1.406.937.47.188 1.032.282 1.876.375h6.375c.843 0 1.406-.187 1.875-.375a4.095 4.095 0 0 0 1.406-.937c.468-.469.656-.844.937-1.407.188-.468.282-1.03.375-1.875v-6.375c0-.843-.187-1.406-.375-1.874a4.094 4.094 0 0 0-.937-1.407c-.469-.469-.844-.656-1.407-.937-.468-.188-1.03-.282-1.875-.375H15Z"/>
    <path fill="#FEFEFE"
          d="M15 10.969A4.001 4.001 0 0 0 10.969 15 4.001 4.001 0 0 0 15 19.031 4.001 4.001 0 0 0 19.031 15 4.001 4.001 0 0 0 15 10.969Zm0 6.656A2.62 2.62 0 0 1 12.375 15 2.62 2.62 0 0 1 15 12.375 2.62 2.62 0 0 1 17.625 15c0 1.406-1.219 2.625-2.625 2.625ZM19.125 11.813a.937.937 0 1 0 0-1.875.937.937 0 0 0 0 1.874Z"/>
</svg>