<svg xmlns="http://www.w3.org/2000/svg" width="30" height="30" fill="none" viewBox="0 0 30 30">
    <path fill="#1B1B1B"
          d="M30 15c0-8.284-6.716-15-15-15C6.716 0 0 6.716 0 15c0 8.284 6.716 15 15 15 8.284 0 15-6.716 15-15Z"/>
    <path fill="#FEFEFE" fill-rule="evenodd"
          d="M9.35 10H7.6c-.5 0-.6.248-.6.52 0 .489.593 2.909 2.763 6.11C11.21 18.814 13.247 20 15.102 20c1.113 0 1.25-.263 1.25-.716v-1.652c0-.527.106-.632.458-.632.26 0 .705.137 1.743 1.19 1.187 1.25 1.383 1.81 2.05 1.81h1.75c.5 0 .75-.263.606-.782-.157-.518-.724-1.27-1.476-2.16-.408-.507-1.02-1.053-1.205-1.326-.26-.352-.186-.508 0-.82 0 0 2.132-3.162 2.355-4.235.111-.39 0-.677-.53-.677h-1.75c-.445 0-.65.248-.762.52 0 0-.89 2.284-2.15 3.768-.409.429-.594.566-.817.566-.11 0-.272-.137-.272-.527v-3.65c0-.468-.129-.677-.5-.677h-2.75a.432.432 0 0 0-.446.423c0 .444.63.547.695 1.796v2.713c0 .594-.102.702-.324.702-.593 0-2.037-2.293-2.893-4.918-.168-.51-.336-.716-.783-.716Z"
          clip-rule="evenodd"/>
</svg>