<svg xmlns="http://www.w3.org/2000/svg" width="30" height="30" fill="none" viewBox="0 0 30 30">
    <path fill="#1B1B1B"
          d="M0 15c0 8.284 6.716 15 15 15 8.284 0 15-6.716 15-15 0-8.284-6.716-15-15-15C6.716 0 0 6.716 0 15Z"/>
    <path fill="#FEFEFE"
          d="M8.031 14.351c4.027-1.754 6.712-2.91 8.055-3.47 3.836-1.595 4.633-1.872 5.152-1.88.115-.003.37.025.536.16.14.113.178.266.196.374.019.107.042.352.023.544-.207 2.184-1.107 7.484-1.564 9.93-.194 1.035-.575 1.382-.944 1.416-.803.074-1.412-.53-2.188-1.04-1.216-.796-1.903-1.292-3.083-2.07-1.364-.899-.48-1.393.298-2.2.203-.211 3.737-3.425 3.805-3.717.009-.037.017-.172-.064-.244-.08-.072-.2-.047-.286-.028-.122.028-2.064 1.311-5.826 3.85-.551.38-1.05.564-1.498.554-.493-.01-1.442-.279-2.147-.508-.865-.281-1.552-.43-1.492-.907.03-.25.373-.504 1.027-.764Z"/>
</svg>