<svg xmlns="http://www.w3.org/2000/svg" width="80" height="64" fill="none" viewBox="0 0 80 64">
    <g clip-path="url(#a)" opacity=".8">
        <path fill="#8D959C"
              d="M17.58 27A17.5 17.5 0 1 1 .08 44.5L0 42A35 35 0 0 1 35 7v10a24.85 24.85 0 0 0-17.68 7.32 25.05 25.05 0 0 0-2.485 2.89 17.72 17.72 0 0 1 2.74-.215l.005.005Zm45 0a17.5 17.5 0 1 1-17.5 17.5L45 42A35 35 0 0 1 80 7v10a24.85 24.85 0 0 0-17.68 7.32 25.05 25.05 0 0 0-2.485 2.89c.895-.14 1.81-.21 2.745-.21Z"/>
    </g>
    <defs>
        <clipPath id="a">
            <path fill="#fff" d="M0 0h80v64H0z"/>
        </clipPath>
    </defs>
</svg>